<?xml version="1.0" encoding="utf-8"?>
<!-- Generator: Adobe Illustrator 15.0.0, SVG Export Plug-In . SVG Version: 6.00 Build 0)  -->
<!DOCTYPE svg PUBLIC "-//W3C//DTD SVG 1.1//EN" "http://www.w3.org/Graphics/SVG/1.1/DTD/svg11.dtd">
<svg version="1.1" id="Слой_1" xmlns="http://www.w3.org/2000/svg" xmlns:xlink="http://www.w3.org/1999/xlink" x="0px" y="0px"
	 width="61.676px" height="61.676px" viewBox="0 0 61.676 61.676" enable-background="new 0 0 61.676 61.676" xml:space="preserve">
<path d="M44.904,15.283h-5.461c-2.176,0-2.631,0.896-2.631,3.147v4.943h8.092l-0.85,8.085h-7.242v28.307h-12.13V31.459h-8.089
	v-8.085h8.089v-9.335c0-7.154,3.766-10.884,12.248-10.884h7.975V15.283z"/>
<path d="M131.402,8.416c-2.982-0.136-3.883-0.161-11.439-0.161c-7.561,0-8.451,0.028-11.438,0.161
	c-7.682,0.354-11.254,3.99-11.605,11.607c-0.133,2.984-0.166,3.879-0.166,11.438c0,7.555,0.033,8.451,0.166,11.439
	c0.352,7.6,3.908,11.256,11.605,11.605c2.98,0.133,3.877,0.168,11.438,0.168c7.559,0,8.457-0.029,11.439-0.168
	c7.678-0.348,11.252-3.994,11.607-11.605c0.133-2.984,0.158-3.885,0.158-11.439c0-7.558-0.025-8.454-0.158-11.438
	C142.654,12.41,139.074,8.77,131.402,8.416 M135.074,19.748c-1.879,0-3.395-1.521-3.395-3.396c0-1.877,1.516-3.398,3.395-3.398
	s3.398,1.521,3.398,3.398C138.473,18.224,136.953,19.748,135.074,19.748 M148.1,43.129c-0.467,10.295-6.195,15.996-16.461,16.471
	c-3.023,0.139-3.992,0.166-11.676,0.166c-7.688,0-8.652-0.027-11.672-0.166c-10.287-0.475-15.996-6.186-16.467-16.471
	c-0.135-3.016-0.172-3.982-0.172-11.668c0-7.688,0.037-8.65,0.172-11.672c0.471-10.287,6.182-15.993,16.467-16.463
	c3.02-0.142,3.984-0.174,11.672-0.174c7.684,0,8.652,0.032,11.676,0.174c10.291,0.473,16,6.195,16.461,16.463
	c0.137,3.021,0.17,3.983,0.17,11.672C148.27,39.146,148.236,40.113,148.1,43.129 M119.963,16.925
	c-8.029,0-14.541,6.508-14.541,14.536c0,8.029,6.512,14.537,14.541,14.537c8.027,0,14.537-6.512,14.537-14.537
	C134.5,23.433,127.99,16.925,119.963,16.925z M119.963,40.895c-5.209,0-9.434-4.221-9.434-9.434c0-5.214,4.225-9.436,9.434-9.436
	s9.432,4.222,9.432,9.436C129.395,36.674,125.172,40.895,119.963,40.895z"/>
</svg>
